<?xml version="1.0" encoding="utf-8"?>
<!-- Generator: Adobe Illustrator 17.0.0, SVG Export Plug-In . SVG Version: 6.00 Build 0)  -->
<!DOCTYPE svg PUBLIC "-//W3C//DTD SVG 1.1//EN" "http://www.w3.org/Graphics/SVG/1.1/DTD/svg11.dtd">
<svg version="1.1" id="Layer_1" xmlns="http://www.w3.org/2000/svg" xmlns:xlink="http://www.w3.org/1999/xlink" x="0px" y="0px"
	 width="865.007px" height="516.807px" viewBox="0 0 865.007 516.807" enable-background="new 0 0 865.007 516.807"
	 xml:space="preserve">
<g>
	<linearGradient id="SVGID_1_" gradientUnits="userSpaceOnUse" x1="432.5035" y1="-1.941771e-08" x2="432.5035" y2="516.8066">
		<stop  offset="0" style="stop-color:#004C6C"/>
		<stop  offset="0.2387" style="stop-color:#004D6C;stop-opacity:0.7613"/>
		<stop  offset="0.3764" style="stop-color:#0F4D6B;stop-opacity:0.6236"/>
		<stop  offset="0.4885" style="stop-color:#1F4E6A;stop-opacity:0.5115"/>
		<stop  offset="0.5868" style="stop-color:#2D4E68;stop-opacity:0.4132"/>
		<stop  offset="0.676" style="stop-color:#374E64;stop-opacity:0.324"/>
		<stop  offset="0.7588" style="stop-color:#3F4E60;stop-opacity:0.2412"/>
		<stop  offset="0.8366" style="stop-color:#424B58;stop-opacity:0.1634"/>
		<stop  offset="0.9103" style="stop-color:#3F434B;stop-opacity:0.0897"/>
		<stop  offset="0.9784" style="stop-color:#252527;stop-opacity:0.0216"/>
		<stop  offset="1" style="stop-color:#000000;stop-opacity:0"/>
	</linearGradient>
	<path fill="url(#SVGID_1_)" d="M539.132,364.017c2.158,3.838,4.093,7.823,6.517,11.484c6.161,9.303,12.558,18.448,18.825,27.68
		c3.314,4.882,2.885,6.517-2.373,9.3c-2.5,1.323-5.136,2.411-7.556,3.861c-8.939,5.357-17.307,3.634-24.077-3.279
		c-7.304-7.459-14.573-15.299-20.093-24.081c-9.985-15.884-19.306-32.27-27.665-49.064c-6.149-12.354-3.407-24.257,6.538-34.289
		c15.115-15.247,33.635-24.802,53.388-32.333c4.037-1.539,8.114-3.094,12.305-4.081c4.756-1.119,4.994-3.585,3.629-7.614
		c-6.23-18.381-22.365-27.561-41.455-22.521c-24.285,6.412-41.767,20.83-49.45,45.391c-2.821,9.017-5.217,18.254-6.755,27.564
		c-2.087,12.631,2.135,24.281,7.415,35.589c9.846,21.085,19.834,42.078,26.539,64.504c5.708,19.091,2.606,35.593-11.149,50.287
		c-15.936,17.024-31.469,34.424-47.191,51.648c-0.769,0.842-1.678,1.557-2.97,2.743c-5.63-6.294-11.086-12.508-16.666-18.609
		c-10.908-11.924-21.723-23.94-32.877-35.631c-13.862-14.531-18.137-31.39-11.191-50.064c7.988-21.478,16.985-42.592,25.981-63.679
		c4.811-11.277,10.042-22.586,7.996-35.003c-1.963-11.912-4.876-23.825-8.868-35.214c-8.754-24.976-28.404-36.989-53.371-40.632
		c-16.404-2.393-31.581,9.933-35.064,26.295c-0.897,4.215,1.255,5.098,4.425,6.085c19.036,5.927,37.009,14.025,52.843,26.384
		c1.05,0.819,2.123,1.615,3.114,2.503c16.112,14.429,19.244,25.85,10.535,45.767c-9.25,21.154-22.592,39.938-36.754,58.092
		c-2.763,3.542-5.639,7.016-8.708,10.293c-5.356,5.721-11.903,7.783-19.487,5.277c-4.725-1.561-9.435-3.248-13.968-5.287
		c-5.004-2.252-5.281-3.815-2.23-8.398c7.565-11.366,15.243-22.66,22.638-34.136c1.395-2.165,1.694-5.037,2.498-7.583
		c-2.561,1.046-5.712,1.469-7.585,3.241c-11.244,10.636-22.263,21.515-33.214,32.455c-5.017,5.012-9.981,6.656-16.142,3.437
		c-7.502-3.92-14.771-8.362-21.802-13.083c-4.813-3.232-4.671-5.007-0.115-8.811c10.87-9.074,21.925-17.928,32.718-27.091
		c1.932-1.64,2.967-4.337,4.416-6.546c-2.714,0.558-5.794,0.475-8.083,1.78c-14.029,7.997-27.971,16.157-41.749,24.578
		c-6.783,4.146-12.785,4.615-19.135-0.833c-5.352-4.593-11.203-8.605-16.833-12.874c0.067-0.654,0.135-1.308,0.202-1.962
		c20.284-11.19,40.567-22.38,60.851-33.57c-0.29-0.72-0.579-1.44-0.869-2.159c-2.242,0.477-4.523,0.819-6.721,1.453
		c-20.271,5.846-40.542,11.696-60.781,17.653c-6.489,1.91-11.539,0.768-15.492-5.212c-3.481-5.268-7.812-9.968-11.406-15.169
		c-3.936-5.696-3.153-7.664,3.514-9.286c12.583-3.061,25.21-5.941,37.829-8.854c6.15-1.42,12.331-2.704,18.477-4.142
		c1.472-0.344,2.857-1.057,4.282-1.6c-0.028-0.457-0.055-0.913-0.083-1.37c-2.473-0.523-4.928-1.376-7.422-1.515
		c-14.623-0.815-29.256-1.462-43.885-2.168c-6.813-0.328-13.672-0.299-20.415-1.171c-2.593-0.336-5.807-2.144-7.215-4.284
		c-6.035-9.17-11.517-18.704-17.159-28.131c-0.764-1.276-1.432-2.648-1.895-4.058c-1.318-4.013-0.145-5.853,4.018-5.553
		c7.781,0.561,15.534,1.516,23.301,2.281c17.692,1.743,35.382,3.498,53.082,5.145c1.314,0.122,2.705-0.582,4.061-0.902
		c0.136-0.659,0.273-1.318,0.409-1.978c-2.819-1.122-5.545-2.689-8.471-3.296c-23.088-4.783-46.201-9.452-69.336-14.007
		c-10.74-2.115-19.873-6.823-26.089-16.004c-9.036-13.345-17.929-26.796-26.482-40.453c-1.682-2.685-1.546-6.508-2.249-9.807
		c3.088,0.614,6.299,0.873,9.244,1.896c30.934,10.743,61.805,21.672,92.766,32.336c2.845,0.98,6.198,0.488,9.315,0.679
		c0.295-4.985-4.174-5.179-7.022-6.389c-32.917-13.986-65.941-27.721-98.89-41.633c-11.451-4.835-20.255-12.735-25.818-23.947
		c-4.065-8.193-8.008-16.452-11.722-24.809c-0.853-1.92-0.541-4.358-0.765-6.557c2.341,0.187,4.934-0.221,6.985,0.649
		c33.078,14.029,66.085,28.224,99.112,42.374c5.506,2.359,10.993,4.772,16.558,6.984c2.054,0.816,4.31,1.124,6.473,1.664
		c0.392-0.612,0.784-1.223,1.175-1.835c-2.032-1.702-3.833-3.853-6.132-5.035c-16.573-8.517-33.347-16.644-49.864-25.267
		c-23.024-12.019-45.813-24.488-68.83-36.521c-14.663-7.666-25.23-19.263-33.907-33.042C11.04,37.341,3.865,23.193,0.71,7.281
		C0.307,5.253,0.294,3.147,0,0c4.398,2.75,7.745,5.157,11.361,7.053C40.7,22.438,70.022,37.859,99.484,53.007
		c29.013,14.917,58.177,29.54,87.298,44.248c2.356,1.19,4.813,2.428,7.361,2.904c1.708,0.319,3.66-0.671,5.503-1.076
		c-0.604-1.767-0.718-4.01-1.895-5.22c-5.451-5.606-10.871-11.321-16.901-16.268c-14.024-11.507-30.224-19.342-46.78-26.467
		c-2.436-1.048-4.869-2.102-7.007-4.21c6.319,1.754,12.713,3.275,18.944,5.301c25.761,8.379,48.217,21.831,64.783,43.748
		c11.066,14.639,17.44,31.697,24.069,48.606c8.917,22.75,18.044,45.417,27.132,68.099c0.789,1.969,1.955,3.788,3.429,6.598
		c1.123-1.883,1.929-2.988,2.487-4.206c12.264-26.779,36.732-37.481,64.683-34.289c44.009,5.026,75.669,40.951,83.974,85.262
		c0.735,3.92,1.076,7.924,1.996,11.794c0.282,1.188,1.885,2.062,2.883,3.08c0.516-1.256,1.651-2.621,1.451-3.749
		c-1.803-10.142-3.311-20.381-5.916-30.326c-5.824-22.237-16.345-42.521-27.294-62.57c-8.611-15.767-9.482-32.397-3.323-48.781
		c5.31-14.126,12.355-27.626,19.043-41.202c9.483-19.25,19.341-38.314,29.16-57.698c2.468,5.187,4.876,10.534,7.523,15.759
		c12.037,23.762,24.408,47.36,36.117,71.282c6.528,13.338,10.751,27.712,7.089,42.553c-2.355,9.543-6.477,18.877-11.159,27.577
		c-13.286,24.694-23.657,50.292-27.183,78.296c-0.361,2.864,0.517,5.884,0.82,8.832c4.306-1.468,2.943-5.366,3.361-8.318
		c5.608-39.634,29.024-76.483,69.883-88.6c17.922-5.315,36.099-6.292,53.475,2.62c10.175,5.219,18.077,12.964,23.782,22.91
		c0.814,1.419,1.685,2.804,3.036,5.045c1.426-2.573,2.716-4.4,3.516-6.422c9.855-24.897,19.83-49.749,29.387-74.761
		c9.992-26.152,24.514-48.717,48.528-64.21c16.974-10.951,35.462-18.015,55.354-21.566c-9.366,4.414-18.811,8.669-28.08,13.278
		c-15.965,7.937-30.216,18.252-41.971,31.746c-1.514,1.738-1.893,4.464-2.798,6.732c2.531,0.1,5.448,1.068,7.524,0.145
		c7.59-3.375,14.898-7.385,22.317-11.147c47.948-24.314,95.936-48.55,143.81-73.008c8.531-4.359,16.594-9.635,26.111-15.213
		c-0.821,4.724-1.193,8.428-2.127,11.984c-5.612,21.374-16.759,39.787-30.98,56.404c-7.964,9.305-18.861,14.732-29.475,20.268
		c-36.143,18.85-72.423,37.437-108.597,56.227c-2.711,1.408-4.998,3.634-7.482,5.48c0.351,0.679,0.702,1.358,1.052,2.037
		c2.265-0.513,4.672-0.696,6.775-1.59c35.22-14.965,70.401-30.022,105.595-45.05c3.975-1.698,7.92-3.488,11.981-4.952
		c1.432-0.516,3.549-0.759,4.638-0.041c0.743,0.49,0.76,3.078,0.223,4.359c-6.487,15.449-11.323,32.339-25.338,42.792
		c-8.905,6.642-19.653,11.045-29.985,15.499c-27.191,11.723-54.612,22.914-81.924,34.36c-1.98,0.83-3.935,1.841-5.663,3.097
		c-0.764,0.555-1.445,2.083-1.21,2.891c0.204,0.701,1.76,1.412,2.71,1.402c1.616-0.018,3.286-0.428,4.83-0.969
		c32.794-11.475,65.569-23.005,98.37-34.46c1.602-0.56,3.407-0.538,5.118-0.788c-0.024,1.868,0.227,3.792-0.147,5.587
		c-0.401,1.924-1.232,3.808-2.146,5.568c-8.64,16.633-19.093,32.016-31.886,45.753c-6.542,7.025-15.526,8.782-24.291,10.586
		c-22.124,4.553-44.33,8.706-66.465,13.206c-2.602,0.529-4.967,2.227-7.442,3.383c0.199,0.625,0.397,1.25,0.596,1.875
		c5.143,0,10.32,0.38,15.424-0.071c15.55-1.375,31.074-3.055,46.604-4.649c5.784-0.594,11.546-1.489,17.343-1.863
		c5.385-0.348,7.048,1.838,4.383,6.59c-6.262,11.167-12.974,22.09-19.821,32.91c-0.928,1.466-3.643,2.399-5.597,2.521
		c-13.955,0.87-27.932,1.398-41.893,2.173c-9.13,0.507-18.248,1.229-27.367,1.907c-0.921,0.068-1.814,0.504-3.007,1.811
		c1.65,0.67,3.244,1.578,4.957,1.974c17.632,4.076,35.293,8.028,52.926,12.1c10.183,2.352,10.856,4.201,4.637,12.644
		c-3.259,4.424-6.99,8.517-10.038,13.075c-3.764,5.628-8.709,6.663-14.739,4.904c-19.77-5.766-39.53-11.564-59.309-17.295
		c-2.827-0.819-5.741-1.343-8.614-2.003c-0.21,0.588-0.421,1.176-0.631,1.764c1.953,1.311,3.821,2.779,5.874,3.909
		c16.632,9.146,33.295,18.237,49.959,27.325c5.444,2.969,5.751,4.07,0.887,7.998c-5.433,4.387-11.16,8.431-16.93,12.373
		c-4.492,3.069-8.942,1.445-13.124-1.003c-14.652-8.574-29.243-17.251-43.943-25.742c-2.219-1.282-4.893-1.776-7.357-2.635
		c-0.414,0.604-0.828,1.208-1.242,1.812c1.742,1.963,3.272,4.179,5.262,5.845c9.962,8.341,20.015,16.575,30.094,24.775
		c7.939,6.459,8.052,7.877-0.606,13.598c-5.821,3.847-11.951,7.272-18.146,10.494c-6.09,3.168-11.232,1.941-16.221-2.979
		c-11.028-10.876-22.057-21.753-33.235-32.473c-2.063-1.979-4.829-3.224-7.27-4.808
		C540.375,362.677,539.753,363.347,539.132,364.017z M433.08,321.891c1.052-0.413,1.494-0.443,1.63-0.662
		c2.177-3.511,4.353-7.025,6.453-10.582c3.678-6.23,2.695-9.031-4.551-9.887c-3.585-0.423-7.482,1.291-11.132,2.389
		c-0.693,0.208-1.565,2.427-1.204,3.114C427.073,311.595,430.153,316.776,433.08,321.891z"/>
</g>
</svg>
