<?xml version="1.0" encoding="UTF-8" standalone="no"?>
<!-- Created with Inkscape (http://www.inkscape.org/) -->

<svg
   xmlns:dc="http://purl.org/dc/elements/1.1/"
   xmlns:cc="http://creativecommons.org/ns#"
   xmlns:rdf="http://www.w3.org/1999/02/22-rdf-syntax-ns#"
   xmlns:svg="http://www.w3.org/2000/svg"
   xmlns="http://www.w3.org/2000/svg"
   xmlns:sodipodi="http://sodipodi.sourceforge.net/DTD/sodipodi-0.dtd"
   xmlns:inkscape="http://www.inkscape.org/namespaces/inkscape"
   width="605"
   height="184"
   viewBox="0 0 605.00001 184"
   id="svg2"
   version="1.1"
   inkscape:version="0.91 r13725"
   inkscape:export-filename="/media/f/sda1/PokemonGo/sites/mystiqc/header.png"
   inkscape:export-xdpi="90"
   inkscape:export-ydpi="90"
   sodipodi:docname="header.svg">
  <defs
     id="defs4" />
  <sodipodi:namedview
     id="base"
     pagecolor="#7f7f7f"
     bordercolor="#666666"
     borderopacity="1.0"
     inkscape:pageopacity="0"
     inkscape:pageshadow="2"
     inkscape:zoom="1.979899"
     inkscape:cx="246.76291"
     inkscape:cy="135.76129"
     inkscape:document-units="px"
     inkscape:current-layer="layer1"
     showgrid="false"
     units="px"
     inkscape:window-width="1920"
     inkscape:window-height="1025"
     inkscape:window-x="0"
     inkscape:window-y="0"
     inkscape:window-maximized="1" />
  <metadata
     id="metadata7">
    <rdf:RDF>
      <cc:Work
         rdf:about="">
        <dc:format>image/svg+xml</dc:format>
        <dc:type
           rdf:resource="http://purl.org/dc/dcmitype/StillImage" />
        <dc:title></dc:title>
      </cc:Work>
    </rdf:RDF>
  </metadata>
  <g
     inkscape:label="Layer 1"
     inkscape:groupmode="layer"
     id="layer1"
     transform="translate(0,-868.36216)">
    <path
       style="fill:#0075f0;fill-opacity:1;fill-rule:evenodd;stroke:#fefefe;stroke-width:1.33071971px;stroke-linecap:butt;stroke-linejoin:miter;stroke-opacity:1"
       d="m 302.58536,934.1002 22.69017,51.89966 -21.93245,42.83814 -23.61311,-43.09017 z"
       id="path3403"
       inkscape:connector-curvature="0" />
    <path
       style="fill:#0075f0;fill-opacity:1;fill-rule:evenodd;stroke:#fefefe;stroke-width:1.33071971px;stroke-linecap:butt;stroke-linejoin:miter;stroke-opacity:1"
       d="m 239.71235,973.23239 35.88185,15.11932 25.04165,45.27409 -47.64637,-23.8551 z"
       id="path3405"
       inkscape:connector-curvature="0" />
    <path
       style="fill:#0075f0;fill-opacity:1;fill-rule:evenodd;stroke:#fefefe;stroke-width:1.33071971px;stroke-linecap:butt;stroke-linejoin:miter;stroke-opacity:1"
       d="m 305.33529,1033.5265 24.24331,-45.13988 36.36496,-15.20491 -13.54773,36.94329 z"
       id="path3407"
       inkscape:connector-curvature="0" />
    <path
       style="fill:#0075f0;fill-opacity:1;fill-rule:evenodd;stroke:#0075f0;stroke-width:1.33071971px;stroke-linecap:butt;stroke-linejoin:miter;stroke-opacity:1"
       d="m 275.80732,1026.1508 27.21431,12.5917 26.50126,-11.879 -6.06083,18.5311 -0.11886,6.3439 -40.62833,0.022 -0.13368,-5.7725 z"
       id="path3409"
       inkscape:connector-curvature="0"
       sodipodi:nodetypes="cccccccc" />
    <path
       style="fill:#0075f0;fill-opacity:1;fill-rule:evenodd;stroke:#0075f0;stroke-width:1.33536279px;stroke-linecap:butt;stroke-linejoin:miter;stroke-opacity:1"
       d="m 10.787167,869.02029 49.920494,0.0297 78.254849,38.67024 C 128.91738,891.5783 107.3075,881.19958 84.742628,871.29678 c 32.552742,3.34894 50.797782,22.90274 69.745382,41.66081 20.68136,35.99073 31.19207,91.14581 54.69759,110.22281 22.33391,5.2206 42.47073,12.6047 56.55895,28.5725 l -140.25676,-0.049 30.1945,-7.3365 -50.3982,-2.3807 c -9.649326,-9.632 -14.59893,-19.7324 -17.914062,-29.9957 l 59.952372,2.8566 c -33.031,-16.28939 -62.665217,12.4678 -93.869643,-58.80121 l 78.105263,22.85395 C 97.063865,957.19663 40.784981,960.37139 33.389018,907.72022 l 88.853702,34.75705 C 84.22521,918.40437 24.335532,903.86926 10.787167,869.02029 Z"
       id="path3411"
       inkscape:connector-curvature="0"
       sodipodi:nodetypes="ccccccccccccccccc"
       inkscape:export-xdpi="90"
       inkscape:export-ydpi="90" />
    <path
       style="fill:#0075f0;fill-opacity:1;fill-rule:evenodd;stroke:#0075f0;stroke-width:1.33536279px;stroke-linecap:butt;stroke-linejoin:miter;stroke-opacity:1"
       d="m 596.24833,869.02029 -49.92049,0.0297 -78.25485,38.67024 c 10.04513,-16.14193 31.65501,-26.52065 54.21988,-36.42345 -32.55274,3.34894 -50.79778,22.90274 -69.74538,41.66081 -20.68136,35.99073 -31.19207,91.14581 -54.69759,110.22281 -22.33391,5.2206 -42.47073,12.6047 -56.55895,28.5725 l 140.25676,-0.049 -30.1945,-7.3365 50.3982,-2.3807 c 9.64933,-9.632 14.59893,-19.7324 17.91406,-29.9957 l -59.95237,2.8566 c 33.031,-16.28939 62.66522,12.4678 93.86964,-58.80121 l -78.10526,22.85395 c 34.49415,-21.70371 90.77304,-18.52895 98.169,-71.18012 l -88.8537,34.75705 c 38.01751,-24.0729 97.90719,-38.60801 111.45555,-73.45698 z"
       id="path3411-6"
       inkscape:connector-curvature="0"
       sodipodi:nodetypes="ccccccccccccccccc" />
  </g>
</svg>
